<svg width="11" height="15" viewBox="0 0 11 15" version="1.1" xmlns="http://www.w3.org/2000/svg" xmlns:xlink="http://www.w3.org/1999/xlink">
<title>placeholder 2</title>
<desc>Created using Figma</desc>
<g id="Canvas" transform="translate(-8617 -498)">
<g id="placeholder 2">
<g id="Group">
<g id="Vector">
<use xlink:href="#path0_fill" transform="translate(8617 498)" fill="#FFFFFF"/>
</g>
</g>
</g>
</g>
<defs>
<path id="path0_fill" d="M 5.5 0C 2.46713 0 0 2.5232 0 5.625C 0 6.8067 0.359431 7.94036 1.03819 8.90443L 1.18253 9.11133L 5.13342 14.8123C 5.22002 14.9304 5.3561 15 5.5 15C 5.64387 15 5.77996 14.9304 5.86657 14.8123L 9.76823 9.17908L 9.96073 8.90625C 10.6406 7.94036 11 6.8067 11 5.625C 11 2.5232 8.53287 0 5.5 0ZM 5.5 7.5C 4.48887 7.5 3.66667 6.6591 3.66667 5.625C 3.66667 4.5909 4.48887 3.75 5.5 3.75C 6.5111 3.75 7.33333 4.5909 7.33333 5.625C 7.33333 6.6591 6.51112 7.5 5.5 7.5Z"/>
</defs>
</svg>
